<?xml version="1.0" encoding="iso-8859-1"?>
<!-- Generator: Adobe Illustrator 19.0.0, SVG Export Plug-In . SVG Version: 6.00 Build 0)  -->
<svg version="1.1" id="Capa_1" xmlns="http://www.w3.org/2000/svg" xmlns:xlink="http://www.w3.org/1999/xlink" x="0px" y="0px"
	 viewBox="0 0 60 60" style="enable-background:new 0 0 60 60;" xml:space="preserve">
<g>
	<g>
		<path d="M51,21C51,9.4,41.6,0,30,0S9,9.4,9,21c0,8.5,5.2,16.2,13,19.4V46v7c0,0.6,0.4,1,1,1h2v6h2v-6h4v-2h-5h-2v-5h12v5h-2
			c-0.6,0-1,0.4-1,1v7h2v-6h2c0.6,0,1-0.4,1-1v-7v-5.6C45.8,37.2,51,29.5,51,21z M36.7,38.8c-0.4,0.1-0.7,0.5-0.7,0.9V45h-5V16h3v-2
			h-8v2h3v29h-5v-5.3c0-0.4-0.3-0.8-0.7-0.9C16,36,11,28.9,11,21c0-10.5,8.5-19,19-19s19,8.5,19,19C49,28.9,44,36,36.7,38.8z"/>
		<path d="M58.3,28.3l-17,17C41.1,45.5,41,45.7,41,46v14h2V46.4l16.7-16.7L58.3,28.3z"/>
		<path d="M1.7,28.3l-1.4,1.4L17,46.4V60h2V46c0-0.3-0.1-0.5-0.3-0.7L1.7,28.3z"/>
		<path d="M48.3,48.3C48.1,48.5,48,48.7,48,49v11h2V49.4l7.7-7.7l-1.4-1.4L48.3,48.3z"/>
		<path d="M3.7,40.3l-1.4,1.4l7.7,7.7V60h2V49c0-0.3-0.1-0.5-0.3-0.7L3.7,40.3z"/>
	</g>
</g>
<g>
</g>
<g>
</g>
<g>
</g>
<g>
</g>
<g>
</g>
<g>
</g>
<g>
</g>
<g>
</g>
<g>
</g>
<g>
</g>
<g>
</g>
<g>
</g>
<g>
</g>
<g>
</g>
<g>
</g>
</svg>
