<svg width="45" height="60" viewBox="0 0 45 60" fill="none" xmlns="http://www.w3.org/2000/svg">
<path d="M42.0384 22.8488L8.5664 37.3659C7.5521 37.6781 6.58656 37.5512 5.66978 36.9854C4.75301 36.4195 4.15808 35.6098 3.88499 34.5561C3.61191 33.5024 3.7387 32.4976 4.26536 31.5415C4.79202 30.5854 5.5625 29.9512 6.5768 29.639L40.0488 15.122C41.1022 14.8488 42.0775 14.9854 42.9747 15.5317C43.872 16.0781 44.4669 16.8878 44.7595 17.961C45.0521 19.0341 44.9253 20.0488 44.3791 21.0049C43.833 21.961 43.0527 22.5756 42.0384 22.8488ZM38.2933 11.6098L4.82128 26.1268C3.80697 26.439 2.84143 26.3122 1.92466 25.7463C1.00788 25.1805 0.412953 24.3707 0.139871 23.3171C-0.133211 22.2634 -0.00642268 21.2585 0.520235 20.3024C1.04689 19.3463 1.81737 18.7317 2.83168 18.4585L36.3037 3.88293C37.357 3.60976 38.3323 3.74634 39.2296 4.29268C40.1269 4.83903 40.7218 5.64878 41.0144 6.72195C41.307 7.79512 41.1802 8.80976 40.634 9.76585C40.0879 10.722 39.3076 11.3366 38.2933 11.6098ZM17.6951 7.86341L8.5664 11.1415C7.5521 11.4537 6.58656 11.3366 5.66978 10.7902C4.75301 10.2439 4.15808 9.43415 3.88499 8.36098C3.61191 7.28781 3.7387 6.27317 4.26536 5.31707C4.79202 4.36098 5.5625 3.74634 6.5768 3.47317L15.7641 0.136585C16.7784 -0.136585 17.7439 0 18.6607 0.546341C19.5775 1.09268 20.1724 1.90244 20.4455 2.97561C20.7185 4.04878 20.5918 5.06342 20.0651 6.01951C19.5384 6.97561 18.7485 7.59024 17.6951 7.86341ZM16.4663 37.8927C16.8564 37.5415 17.305 37.2878 17.8122 37.1317L36.3037 30.1073C37.357 29.8341 38.3323 29.9707 39.2296 30.5171C40.1269 31.0634 40.7218 31.8732 41.0144 32.9463C41.307 34.0195 41.1802 35.0341 40.634 35.9902C40.0879 36.9463 39.3076 37.561 38.2933 37.8341L22.4936 43.8634C22.4546 44.3707 22.4351 44.7415 22.4351 44.9756H26.1802C27.2335 44.9756 28.121 45.3463 28.8427 46.0878C29.5645 46.8293 29.9253 47.7171 29.9253 48.7512C29.9253 49.7854 29.5645 50.6634 28.8427 51.3854C28.121 52.1073 27.2335 52.4683 26.1802 52.4683H18.6899C18.4559 52.4683 18.2218 52.4488 17.9877 52.4098C16.0762 52.2146 14.4669 51.4049 13.16 49.9805C11.8531 48.5561 11.1997 46.8878 11.1997 44.9756C11.1997 43.3366 11.6873 41.8634 12.6626 40.5561C13.6379 39.2488 14.9058 38.361 16.4663 37.8927ZM22.4351 59.961C20.3674 59.961 18.6022 59.6 17.1392 58.8781C15.6763 58.1561 14.9448 57.2683 14.9448 56.2146H29.9253C29.9253 57.2683 29.1938 58.1561 27.7309 58.8781C26.268 59.6 24.5027 59.961 22.4351 59.961Z" fill="url(#paint0_linear_309_36)"/>
<defs>
<linearGradient id="paint0_linear_309_36" x1="22.4563" y1="59.961" x2="22.4563" y2="0" gradientUnits="userSpaceOnUse">
<stop stop-color="#007CF0"/>
<stop offset="1" stop-color="#00DFD8"/>
</linearGradient>
</defs>
</svg>
